<?xml version="1.0" encoding="UTF-8"?>
<svg xmlns="http://www.w3.org/2000/svg" version="1.1" viewBox="0 0 2715.9 3108.1">
  <defs>
    <style>
      .cls-1, .cls-2, .cls-3, .cls-4, .cls-5, .cls-6, .cls-7, .cls-8, .cls-9, .cls-10, .cls-11, .cls-12, .cls-13, .cls-14 {
        fill: none;
      }

      .cls-1, .cls-2, .cls-3, .cls-4, .cls-5, .cls-6, .cls-7, .cls-8, .cls-9, .cls-10, .cls-11, .cls-12, .cls-14 {
        stroke: #0a9dd9;
        stroke-miterlimit: 10;
      }

      .cls-1, .cls-2, .cls-3, .cls-4, .cls-5, .cls-6, .cls-7, .cls-9, .cls-11, .cls-12, .cls-13, .cls-14 {
        stroke-linecap: round;
      }

      .cls-1, .cls-4, .cls-5, .cls-11, .cls-12, .cls-13, .cls-14 {
        stroke-width: 3px;
      }

      .cls-2 {
        stroke-width: 5px;
      }

      .cls-3, .cls-6, .cls-7, .cls-9 {
        stroke-width: 8px;
      }

      .cls-4 {
        stroke-dasharray: 0 14.9;
      }

      .cls-5 {
        stroke-dasharray: 0 14.8;
      }

      .cls-6 {
        stroke-dasharray: 0 25.1;
      }

      .cls-7 {
        stroke-dasharray: 0 25.3;
      }

      .cls-8 {
        stroke-width: 1.5px;
      }

      .cls-9 {
        stroke-dasharray: 0 24.7;
      }

      .cls-10 {
        stroke-width: 3.5px;
      }

      .cls-11 {
        stroke-dasharray: 0 14.9;
      }

      .cls-12 {
        stroke-dasharray: 0 15.2;
      }

      .cls-13 {
        stroke: #1799d6;
        stroke-linejoin: round;
      }

      .cls-14 {
        stroke-dasharray: 0 15;
      }
    </style>
  </defs>
  <!-- Generator: Adobe Illustrator 28.7.1, SVG Export Plug-In . SVG Version: 1.2.0 Build 142)  -->
  <g>
    <g id="Layer_1">
      <g id="Layer_2">
        <g id="Layer_1-2">
          <line class="cls-1" x1="2050.6" y1="2036.3" x2="2050.6" y2="2036.3"/>
          <line class="cls-14" x1="2033.2" y1="2047.3" x2="1227.2" y2="2556.9"/>
          <line class="cls-1" x1="1218.6" y1="2562.4" x2="1218.6" y2="2562.4"/>
          <line class="cls-1" x1="1010.5" y1="2694" x2="1010.5" y2="2694"/>
          <line class="cls-12" x1="993" y1="2705.1" x2="492.1" y2="3021.7"/>
          <line class="cls-1" x1="483.3" y1="3027.3" x2="483.3" y2="3027.3"/>
          <line class="cls-3" x1="1518.5" y1="2487.9" x2="1518.5" y2="2487.9"/>
          <line class="cls-7" x1="1489.2" y1="2506.4" x2="684.9" y2="3015"/>
          <line class="cls-3" x1="670.3" y1="3024.2" x2="670.3" y2="3024.2"/>
          <line class="cls-13" x1="1721.9" y1="2397.7" x2="1011.1" y2="2847.1"/>
          <line class="cls-13" x1="1192.3" y1="2579" x2="1043.7" y2="2673"/>
          <line class="cls-8" x1="2157.5" y1="2036.6" x2="574.8" y2="3037.4"/>
          <line class="cls-10" x1="1956.8" y1="2210.8" x2="1518.5" y2="2487.9"/>
          <line class="cls-2" x1="1549.7" y1="2353" x2="1383.6" y2="2458.1"/>
          <line class="cls-2" x1="964.3" y1="2838.3" x2="747.4" y2="2975.5"/>
          <line class="cls-1" x1="589.4" y1="2757.1" x2="589.4" y2="2757.1"/>
          <line class="cls-5" x1="606.5" y1="2746.3" x2="1009.3" y2="2491.6"/>
          <line class="cls-1" x1="1017.9" y1="2486.2" x2="1017.9" y2="2486.2"/>
          <line class="cls-3" x1="1225.9" y1="2354.6" x2="1225.9" y2="2354.6"/>
          <line class="cls-6" x1="1255" y1="2336.3" x2="2142" y2="1775.4"/>
          <line class="cls-3" x1="2156.6" y1="1766.2" x2="2156.6" y2="1766.2"/>
          <line class="cls-1" x1="1121.7" y1="2363.8" x2="1121.7" y2="2363.8"/>
          <line class="cls-4" x1="1139" y1="2352.8" x2="1961.2" y2="1832.9"/>
          <line class="cls-1" x1="1969.9" y1="1827.4" x2="1969.9" y2="1827.4"/>
          <line class="cls-13" x1="654" y1="2611.8" x2="1364.8" y2="2162.4"/>
          <line class="cls-13" x1="1044.1" y1="2469.6" x2="1192.7" y2="2375.6"/>
          <line class="cls-8" x1="482.9" y1="2901.7" x2="2065.7" y2="1900.9"/>
          <line class="cls-10" x1="683.4" y1="2640.9" x2="1033.6" y2="2419.4"/>
          <line class="cls-2" x1="1851" y1="1959.3" x2="2017.2" y2="1854.3"/>
          <line class="cls-2" x1="1399.4" y1="2140.5" x2="1892.6" y2="1828.7"/>
          <line class="cls-1" x1="2048.5" y1="1465.2" x2="2048.5" y2="1465.2"/>
          <line class="cls-14" x1="2031.2" y1="1476.1" x2="1225.2" y2="1985.8"/>
          <line class="cls-1" x1="1216.5" y1="1991.2" x2="1216.5" y2="1991.2"/>
          <line class="cls-1" x1="1008.5" y1="2122.8" x2="1008.5" y2="2122.8"/>
          <line class="cls-12" x1="990.9" y1="2133.9" x2="490.1" y2="2450.6"/>
          <line class="cls-1" x1="481.3" y1="2456.1" x2="481.3" y2="2456.1"/>
          <line class="cls-3" x1="1516.4" y1="1916.7" x2="1516.4" y2="1916.7"/>
          <line class="cls-7" x1="1487.2" y1="1935.2" x2="682.8" y2="2443.8"/>
          <line class="cls-3" x1="668.2" y1="2453" x2="668.2" y2="2453"/>
          <line class="cls-13" x1="1719.8" y1="1826.5" x2="1009" y2="2275.9"/>
          <line class="cls-13" x1="1190.3" y1="2007.8" x2="1041.6" y2="2101.8"/>
          <line class="cls-8" x1="2155.5" y1="1465.4" x2="572.7" y2="2466.2"/>
          <line class="cls-10" x1="1954.7" y1="1639.6" x2="1516.4" y2="1916.7"/>
          <line class="cls-2" x1="1547.7" y1="1781.8" x2="1381.6" y2="1886.9"/>
          <line class="cls-2" x1="962.2" y1="2267.1" x2="745.3" y2="2404.3"/>
          <line class="cls-1" x1="587.3" y1="2185.9" x2="587.3" y2="2185.9"/>
          <line class="cls-5" x1="604.4" y1="2175.1" x2="1007.2" y2="1920.4"/>
          <line class="cls-1" x1="1015.8" y1="1915" x2="1015.8" y2="1915"/>
          <line class="cls-3" x1="1223.8" y1="1783.5" x2="1223.8" y2="1783.5"/>
          <line class="cls-6" x1="1252.9" y1="1765.1" x2="2140" y2="1204.2"/>
          <line class="cls-3" x1="2154.5" y1="1195" x2="2154.5" y2="1195"/>
          <line class="cls-1" x1="1119.6" y1="1792.6" x2="1119.6" y2="1792.6"/>
          <line class="cls-4" x1="1136.9" y1="1781.6" x2="1959.1" y2="1261.8"/>
          <line class="cls-1" x1="1967.8" y1="1256.3" x2="1967.8" y2="1256.3"/>
          <line class="cls-13" x1="652" y1="2040.7" x2="1362.8" y2="1591.2"/>
          <line class="cls-13" x1="1042" y1="1898.4" x2="1190.7" y2="1804.4"/>
          <line class="cls-8" x1="480.8" y1="2330.5" x2="2063.6" y2="1329.7"/>
          <line class="cls-10" x1="681.3" y1="2069.7" x2="1031.6" y2="1848.3"/>
          <line class="cls-2" x1="1849" y1="1388.2" x2="2015.1" y2="1283.1"/>
          <line class="cls-2" x1="1397.4" y1="1569.4" x2="1890.6" y2="1257.5"/>
          <line class="cls-1" x1="2046.5" y1="894" x2="2046.5" y2="894"/>
          <line class="cls-14" x1="2029.1" y1="905" x2="1223.1" y2="1414.6"/>
          <line class="cls-1" x1="1214.4" y1="1420.1" x2="1214.4" y2="1420.1"/>
          <line class="cls-1" x1="1006.4" y1="1551.6" x2="1006.4" y2="1551.6"/>
          <line class="cls-12" x1="988.9" y1="1562.7" x2="488" y2="1879.4"/>
          <line class="cls-1" x1="479.2" y1="1885" x2="479.2" y2="1885"/>
          <line class="cls-3" x1="1514.4" y1="1345.6" x2="1514.4" y2="1345.6"/>
          <line class="cls-7" x1="1485.1" y1="1364.1" x2="680.8" y2="1872.6"/>
          <line class="cls-3" x1="666.2" y1="1881.9" x2="666.2" y2="1881.9"/>
          <line class="cls-13" x1="1717.8" y1="1255.3" x2="1007" y2="1704.8"/>
          <line class="cls-13" x1="1188.2" y1="1436.7" x2="1039.6" y2="1530.7"/>
          <line class="cls-8" x1="2153.4" y1="894.2" x2="570.7" y2="1895"/>
          <line class="cls-10" x1="1952.6" y1="1068.4" x2="1514.4" y2="1345.6"/>
          <line class="cls-2" x1="1545.6" y1="1210.7" x2="1379.5" y2="1315.7"/>
          <line class="cls-2" x1="960.2" y1="1696" x2="743.3" y2="1833.1"/>
          <line class="cls-1" x1="585.2" y1="1614.8" x2="585.2" y2="1614.8"/>
          <line class="cls-5" x1="602.4" y1="1603.9" x2="1005.2" y2="1349.3"/>
          <line class="cls-1" x1="1013.7" y1="1343.8" x2="1013.7" y2="1343.8"/>
          <line class="cls-3" x1="1221.8" y1="1212.3" x2="1221.8" y2="1212.3"/>
          <line class="cls-6" x1="1250.9" y1="1193.9" x2="2137.9" y2="633"/>
          <line class="cls-3" x1="2152.5" y1="623.8" x2="2152.5" y2="623.8"/>
          <line class="cls-1" x1="1117.5" y1="1221.4" x2="1117.5" y2="1221.4"/>
          <line class="cls-4" x1="1134.9" y1="1210.5" x2="1957.1" y2="690.6"/>
          <line class="cls-1" x1="1965.8" y1="685.1" x2="1965.8" y2="685.1"/>
          <line class="cls-13" x1="649.9" y1="1469.5" x2="1360.7" y2="1020.1"/>
          <line class="cls-13" x1="1040" y1="1327.3" x2="1188.6" y2="1233.3"/>
          <line class="cls-8" x1="478.8" y1="1759.4" x2="2061.6" y2="758.6"/>
          <line class="cls-10" x1="679.3" y1="1498.6" x2="1029.5" y2="1277.1"/>
          <line class="cls-2" x1="1846.9" y1="817" x2="2013.1" y2="712"/>
          <line class="cls-2" x1="1395.3" y1="998.2" x2="1888.5" y2="686.4"/>
          <line class="cls-1" x1="2044.4" y1="322.8" x2="2044.4" y2="322.8"/>
          <line class="cls-14" x1="2027.1" y1="333.8" x2="1221.1" y2="843.4"/>
          <line class="cls-1" x1="1212.4" y1="848.9" x2="1212.4" y2="848.9"/>
          <line class="cls-1" x1="1004.4" y1="980.4" x2="1004.4" y2="980.4"/>
          <line class="cls-12" x1="986.8" y1="991.6" x2="486" y2="1308.2"/>
          <line class="cls-1" x1="477.2" y1="1313.8" x2="477.2" y2="1313.8"/>
          <line class="cls-3" x1="1512.3" y1="774.4" x2="1512.3" y2="774.4"/>
          <line class="cls-7" x1="1483.1" y1="792.9" x2="678.7" y2="1301.5"/>
          <line class="cls-3" x1="664.1" y1="1310.7" x2="664.1" y2="1310.7"/>
          <line class="cls-13" x1="1715.7" y1="684.2" x2="1004.9" y2="1133.6"/>
          <line class="cls-13" x1="1186.2" y1="865.5" x2="1037.5" y2="959.5"/>
          <line class="cls-8" x1="2151.4" y1="323.1" x2="568.6" y2="1323.9"/>
          <line class="cls-10" x1="1950.6" y1="497.3" x2="1512.3" y2="774.4"/>
          <line class="cls-2" x1="1543.6" y1="639.5" x2="1377.4" y2="744.6"/>
          <line class="cls-2" x1="958.1" y1="1124.8" x2="741.2" y2="1262"/>
          <line class="cls-3" x1="583.2" y1="1043.6" x2="583.2" y2="1043.6"/>
          <line class="cls-9" x1="611.8" y1="1025.6" x2="997.4" y2="781.7"/>
          <line class="cls-3" x1="1011.7" y1="772.7" x2="1011.7" y2="772.7"/>
          <line class="cls-1" x1="1219.7" y1="641.1" x2="1219.7" y2="641.1"/>
          <line class="cls-11" x1="1236.9" y1="630.2" x2="2141.8" y2="58.1"/>
          <line class="cls-1" x1="2150.4" y1="52.7" x2="2150.4" y2="52.7"/>
          <line class="cls-1" x1="1115.5" y1="650.3" x2="1115.5" y2="650.3"/>
          <line class="cls-4" x1="1132.8" y1="639.3" x2="1955" y2="119.4"/>
          <line class="cls-1" x1="1963.7" y1="113.9" x2="1963.7" y2="113.9"/>
          <line class="cls-13" x1="647.9" y1="898.3" x2="1358.7" y2="448.9"/>
          <line class="cls-13" x1="1037.9" y1="756.1" x2="1186.6" y2="662.1"/>
          <line class="cls-8" x1="476.7" y1="1188.2" x2="2059.5" y2="187.4"/>
          <line class="cls-10" x1="677.2" y1="927.4" x2="1027.5" y2="705.9"/>
          <line class="cls-2" x1="1844.9" y1="245.8" x2="2011" y2="140.8"/>
          <line class="cls-2" x1="1393.2" y1="427" x2="1886.5" y2="115.2"/>
        </g>
      </g>
    </g>
  </g>
</svg>