<?xml version="1.0" encoding="UTF-8"?>
<!-- Generator: Adobe Illustrator 25.2.1, SVG Export Plug-In . SVG Version: 6.00 Build 0)  -->
<svg xmlns="http://www.w3.org/2000/svg" xmlns:xlink="http://www.w3.org/1999/xlink" version="1.1" x="0px" y="0px" viewBox="0 0 270 270" style="enable-background:new 0 0 270 270;" xml:space="preserve">
<style type="text/css">
	.st0{fill:none;stroke:#009ADD;stroke-width:3;stroke-linecap:round;stroke-linejoin:round;}
	.st1{fill:none;stroke:#009ADD;stroke-width:3;stroke-linecap:round;stroke-miterlimit:10;}
	.st2{fill:none;stroke:#009ADD;stroke-width:3;stroke-linecap:round;stroke-linejoin:round;stroke-miterlimit:10;}
	.st3{fill:none;stroke:#009ADD;stroke-width:3;stroke-linecap:round;stroke-linejoin:round;stroke-miterlimit:9.9998;}
	.st4{fill:none;stroke:#009ADD;stroke-width:3;stroke-linecap:round;stroke-linejoin:round;stroke-miterlimit:3;}
	.st5{fill:none;stroke:#009ADD;stroke-linecap:round;stroke-miterlimit:10;}
	.st6{fill:none;stroke:#009ADD;stroke-width:3;stroke-linecap:square;}
	.st7{fill:none;stroke:#009ADD;stroke-width:3;}
	.st8{fill:none;stroke:#009ADD;stroke-width:3;stroke-linejoin:round;}
	.st9{fill:none;stroke:#009ADD;stroke-width:3;stroke-miterlimit:10;}
	.st10{fill:#FFFFFF;stroke:#009ADD;stroke-width:3;stroke-linecap:round;stroke-linejoin:round;stroke-miterlimit:10;}
	.st11{fill:none;stroke:#009ADD;stroke-width:2;stroke-linecap:round;stroke-linejoin:round;}
	.st12{fill:none;stroke:#009ADD;stroke-width:3;stroke-linecap:round;stroke-linejoin:round;stroke-dasharray:7.05,7.05;}
	.st13{fill:none;stroke:#109AD6;stroke-width:3;stroke-linecap:round;stroke-linejoin:round;}
	.st14{fill:#009ADD;}
	.st15{clip-path:url(#SVGID_2_);}
</style>
<g id="Layer_1">
</g>
<g id="icons">
</g>
<g id="Circle">
	<g id="Layer_2_6_">
		<g id="Layer_1-2_5_">
			<path class="st0" d="M235.1,73.2c-33.9-54.3-105.3-70.8-159.6-37C52.7,50.5,35.6,72.2,27,97.7l20.2,6.8     C63.8,55,117.4,28.3,166.9,44.9c20,6.7,37.2,19.9,48.8,37.5l-13.5,6.4l34.4,12.3L249,66.7L235.1,73.2z"></path>
			<path class="st0" d="M38.6,196c33.9,54.3,105.4,70.8,159.6,36.9c22.8-14.2,39.9-35.9,48.5-61.4l-20.2-6.8     c-16.6,49.5-70.2,76.2-119.7,59.6c-20-6.7-37.1-19.9-48.8-37.4l13.5-6.4l-34.4-12.3l-12.3,34.4L38.6,196z"></path>
			<path class="st0" d="M182.2,99.4c32.3,10.8,22.6,61.1-14.4,54.4c-11.5,16.8-52,15-62.5-4.7c-46.4,0-45.2-53.8-5.5-51.2     c-7.1-14.2,14.2-25.5,23.6-16.5C143.2,55.1,189.1,77.3,182.2,99.4z"></path>
			<path class="st0" d="M156.5,162.6c5.3,5.3,5.3,13.8,0,19.1c-5.3,5.3-13.8,5.3-19.1,0c-4.2-4.2-5.2-10.7-2.4-15.9"></path>
			<circle class="st0" cx="134.2" cy="203.3" r="8.1"></circle>
		</g>
	</g>
</g>
</svg>
