<?xml version="1.0" encoding="UTF-8"?>
<svg xmlns="http://www.w3.org/2000/svg" id="Layer_1" data-name="Layer 1" viewBox="0 0 67.24 60">
  <defs>
    <style>
      .cls-1 {
        fill: #009add;
        stroke-width: 0px;
      }
    </style>
  </defs>
  <g id="Circle">
    <g id="Layer_2" data-name="Layer 2">
      <g id="Layer_1-2" data-name="Layer 1-2">
        <path class="cls-1" d="M32.15,12.24h-1.19c-.21,0-.38-.17-.38-.38s.17-.38.38-.38h.81v-6.83h-2.68s-.01,0-.02,0c-.65,0-1.24.38-1.52.98l-.31.66c-.27.6-.51,1.11-.59,1.26-.05.1-.14.17-.25.2-.66.16-.71,1.13-.67,1.95,0,.06,0,.11,0,.15,0,.18-.12.34-.29.38-.12.03-.13.25-.12.63,0,.07,0,.13,0,.2,0,.11.16.29.31.41h2.09c.21,0,.38.17.38.38s-.17.38-.38.38h-2.22c-.08,0-.15-.02-.22-.07-.12-.08-.73-.53-.73-1.12,0-.05,0-.11,0-.17-.01-.36-.03-.97.4-1.27-.03-.69-.03-2.15,1.08-2.56.11-.23.3-.65.5-1.09l.31-.67c.41-.88,1.29-1.43,2.24-1.42h3.06c.21,0,.38.17.38.38v7.6c0,.21-.17.38-.38.38Z"></path>
        <path class="cls-1" d="M30.55,8.21h-2.13c-.38,0-.69-.31-.69-.69,0-.03,0-.06.01-.09l.03-.12s.01-.05.03-.07l.65-1.38c.1-.25.35-.42.62-.42h1.48c.21,0,.38.17.38.38v2c0,.21-.17.38-.38.38ZM28.56,7.44h1.61v-1.23h-1.03l-.58,1.23ZM29.17,6.13s0,0,0,0t0,0Z"></path>
        <path class="cls-1" d="M44.98,12.23h-2c-.21,0-.38-.17-.38-.38s.17-.38.38-.38h1.61V1.01h-12.05v10.44h7.26c.21,0,.38.17.38.38s-.17.38-.38.38h-7.64c-.21,0-.38-.17-.38-.38V.63c0-.21.17-.38.38-.38h12.82c.21,0,.38.17.38.38v11.21c0,.21-.17.38-.38.38Z"></path>
        <path class="cls-1" d="M41.37,13.82s-.02,0-.02,0c-1.08,0-1.97-.89-1.97-1.98,0-.54.22-1.04.6-1.42.38-.37.87-.57,1.39-.56.02,0,.03,0,.05,0,.51.01.99.22,1.35.59.37.38.58.88.57,1.41,0,.52-.21,1.02-.59,1.4-.37.37-.86.57-1.38.57ZM41.33,10.63c-.3,0-.59.13-.81.34-.24.23-.37.54-.37.87,0,.66.54,1.21,1.2,1.21.33,0,.63-.12.86-.35.23-.23.36-.53.36-.85,0-.33-.12-.63-.35-.86-.23-.23-.53-.36-.85-.36-.01,0-.03,0-.04,0Z"></path>
        <path class="cls-1" d="M29.36,13.83c-1.1,0-1.99-.89-1.99-1.99,0-.21.17-.38.38-.38s.38.17.38.38c0,.67.55,1.22,1.22,1.22s1.22-.55,1.22-1.22c0-.21.17-.38.38-.38s.38.17.38.38c0,1.1-.89,1.99-1.99,1.99Z"></path>
        <path class="cls-1" d="M30.96,12.23c-.21,0-.38-.17-.38-.38,0-.67-.55-1.22-1.22-1.22s-1.22.55-1.22,1.22c0,.21-.17.38-.38.38s-.38-.17-.38-.38c0-1.1.89-1.99,1.99-1.99s1.99.89,1.99,1.99c0,.21-.17.38-.38.38Z"></path>
        <path class="cls-1" d="M46.58,1.01h-12.42c-.21,0-.38-.17-.38-.38s.17-.38.38-.38h12.42c.21,0,.38.17.38.38s-.17.38-.38.38Z"></path>
        <path class="cls-1" d="M45.46,1.01h-.81c-.21,0-.38-.17-.38-.38s.17-.38.38-.38h.81c.21,0,.38.17.38.38s-.17.38-.38.38Z"></path>
        <path class="cls-1" d="M47.05,1.01h-.8c-.21,0-.38-.17-.38-.38s.17-.38.38-.38h.8c.21,0,.38.17.38.38s-.17.38-.38.38Z"></path>
      </g>
    </g>
  </g>
  <g id="Circle-2">
    <g id="Layer_2-2" data-name="Layer 2-2">
      <g id="Layer_1-2-2" data-name="Layer 1-2-2">
        <path class="cls-1" d="M15.87,34.57H3.74c-.21,0-.38-.17-.38-.38v-6.83c0-.12.06-.24.15-.31l3.58-2.67c.17-.13.41-.09.54.08s.09.41-.08.54l-3.42,2.55v6.25h11.75c.21,0,.38.17.38.38s-.17.38-.38.38Z"></path>
        <path class="cls-1" d="M20.52,35.96H1.3c-.21,0-.38-.17-.38-.38v-1.39c0-.21.17-.38.38-.38h1.69c.21,0,.38.17.38.38s-.17.38-.38.38h-1.31v.62h18.45v-.62h-1.13c-.21,0-.38-.17-.38-.38v-14.07h-1.18v7.41c0,.21-.17.38-.38.38h-2.64c-.21,0-.38-.17-.38-.38v-1.99l-3.29,2.11c-.12.08-.27.08-.39.01-.12-.07-.2-.2-.2-.34v-1.73l-2.83,2.04c-.12.08-.27.1-.4.03-.13-.07-.21-.2-.21-.34v-1.78c0-.21.17-.38.38-.38s.38.17.38.38v1.02l2.83-2.04c.12-.08.27-.1.4-.03.13.07.21.2.21.34v1.78l3.29-2.11c.12-.08.27-.08.39-.01s.2.2.2.34v2.31h1.87v-7.41c0-.21.17-.38.38-.38h1.95c.21,0,.38.17.38.38v14.07h1.13c.21,0,.38.17.38.38v1.39c0,.21-.17.38-.38.38Z"></path>
      </g>
    </g>
  </g>
  <g id="Circle-3">
    <g id="Layer_2-3" data-name="Layer 2-3">
      <g id="Layer_1-2-3" data-name="Layer 1-2-3">
        <path class="cls-1" d="M41.51,56.02c-.21,0-.38-.17-.38-.38v-4.82c0-.6-.11-1.18-.33-1.74-.08-.2.02-.42.22-.5.2-.08.42.02.5.22.25.65.38,1.33.38,2.02v4.82c0,.21-.17.38-.38.38Z"></path>
        <path class="cls-1" d="M32.97,59.63s-.03,0-.05,0c-1.87-.23-4.1-1.11-4.1-4v-4.82c0-.69.13-1.37.38-2.02.02-.05.04-.1.07-.16.09-.19.33-.27.52-.17.19.1.27.33.17.52-.01.03-.02.05-.03.08-.22.58-.33,1.17-.33,1.76v4.82c0,1.89,1.12,2.95,3.43,3.23.21.03.36.22.34.43-.02.2-.19.34-.38.34Z"></path>
        <path class="cls-1" d="M34.43,59.75h-1.16c-.46,0-.84-.38-.84-.84s.38-.84.84-.84h1.16c.47,0,.84.37.84.84s-.38.84-.84.84ZM33.27,58.84s-.07.03-.07.07.03.07.07.07h1.16s.07-.03.07-.07c0-.03-.02-.07-.07-.07h-1.16Z"></path>
        <path class="cls-1" d="M29.97,49.16c-.21,0-.42-.06-.59-.19-.44-.29-.58-.88-.33-1.36.69-1.15,1.72-2.05,2.93-2.55.2-.08.42.01.5.21.08.2-.01.42-.21.5-1.06.44-1.97,1.22-2.56,2.21-.06.11-.02.27.09.35.09.06.17.06.21.05.07-.01.14-.05.18-.12.62-1.04,1.62-1.81,2.8-2.16.2-.06.42.06.48.26.06.2-.06.42-.26.48-1,.29-1.84.94-2.37,1.83-.17.25-.42.41-.69.46-.06.01-.13.02-.19.02Z"></path>
        <path class="cls-1" d="M29.25,56.85c-1.13,0-2.04-.92-2.04-2.04v-2.05c0-1.13.92-2.04,2.04-2.04.21,0,.38.17.38.38s-.17.38-.38.38c-.7,0-1.27.57-1.27,1.27v2.05c0,.7.57,1.27,1.27,1.27.21,0,.38.17.38.38s-.17.38-.38.38Z"></path>
        <path class="cls-1" d="M30.42,57.28h-.63c-.52,0-.94-.42-.94-.94v-5.06c.01-.52.43-.94.94-.94h.63c.52,0,.94.42.94.94v5.06c0,.52-.42.94-.94.94ZM29.8,51.1c-.09,0-.17.08-.17.18v5.05c0,.09.08.17.17.17h.63c.09,0,.17-.08.17-.17v-5.06c0-.09-.08-.17-.17-.17h-.63Z"></path>
        <path class="cls-1" d="M41.52,56.88c-.21,0-.38-.17-.38-.38s.17-.38.38-.38c.7,0,1.27-.57,1.27-1.27v-2.04c0-.7-.57-1.27-1.27-1.27-.21,0-.38-.17-.38-.38s.17-.38.38-.38c1.13,0,2.04.92,2.04,2.04v2.04c0,1.13-.92,2.04-2.04,2.04Z"></path>
        <path class="cls-1" d="M40.97,57.28h-.63c-.52,0-.94-.42-.94-.94v-5.06c0-.52.42-.94.94-.94h.63c.52,0,.94.42.94.94v5.06c0,.52-.42.94-.94.94ZM40.34,51.1c-.09,0-.17.08-.17.17v5.06c0,.09.08.17.17.17h.63c.09,0,.17-.08.17-.17v-5.06c0-.09-.08-.17-.17-.17h-.63Z"></path>
        <path class="cls-1" d="M35.29,51.4s-.1,0-.15-.03c-.14-.06-.24-.2-.24-.36v-1.78h-1.76c-.21,0-.38-.17-.38-.38v-6.81c0-.21.17-.38.38-.38h7.27c.21,0,.38.17.38.38s-.17.38-.38.38h-6.89v6.04h1.76c.21,0,.38.17.38.38v1.24l1.51-1.51c.07-.07.17-.11.27-.11h6.8v-6.04h-.75c-.21,0-.38-.17-.38-.38s.17-.38.38-.38h1.14c.21,0,.38.17.38.38v6.81c0,.21-.17.38-.38.38h-7.02l-2.06,2.06c-.07.07-.17.11-.27.11Z"></path>
      </g>
    </g>
  </g>
  <path class="cls-1" d="M58.54,37.17c-.18,0-.37,0-.56,0-1.79-.03-7.57-.31-7.57-2.51,0-1.63,3.38-2.2,5.39-2.39.21-.02.4.13.42.35.02.21-.14.4-.35.42-2.76.26-4.7.93-4.7,1.63,0,.8,2.54,1.67,6.8,1.74.2,0,.39,0,.57,0,.18,0,.36,0,.55,0,4.2-.08,6.8-.97,6.8-1.74,0-.74-2.39-1.41-4.7-1.63-.21-.02-.37-.21-.35-.42.02-.21.21-.37.42-.35,4.87.46,5.39,1.83,5.39,2.39,0,2.26-6.29,2.49-7.55,2.51-.2,0-.39,0-.57,0Z"></path>
  <path class="cls-1" d="M58.04,20.59c-.14,0-.28-.08-.35-.22-2.59-5.55-7.16-9.85-12.85-12.09-.2-.08-.29-.3-.22-.5.08-.2.3-.29.5-.22,5.87,2.31,10.58,6.74,13.26,12.48.09.19,0,.42-.19.51-.05.02-.11.04-.16.04Z"></path>
  <path class="cls-1" d="M43.17,53.95c-.16,0-.32-.11-.37-.27-.06-.2.05-.42.26-.48,7.75-2.36,13.9-8.69,16.02-16.51.06-.21.27-.33.47-.27.2.06.33.27.27.47-2.2,8.08-8.54,14.61-16.54,17.04-.04.01-.07.02-.11.02Z"></path>
  <path class="cls-1" d="M27.48,53.41s-.09,0-.14-.03c-7.78-2.98-13.47-9.6-15.23-17.72-.05-.21.09-.41.29-.46.21-.05.41.09.46.29,1.71,7.87,7.22,14.28,14.75,17.17.2.08.3.3.22.5-.06.15-.2.25-.36.25Z"></path>
  <path class="cls-1" d="M12.27,26.81s-.04,0-.06,0c-.21-.03-.35-.23-.32-.44,1.29-7.76,6.29-14.48,13.36-17.97.19-.09.42-.02.52.17.09.19.02.42-.17.52-6.85,3.39-11.69,9.89-12.94,17.41-.03.19-.19.32-.38.32Z"></path>
  <path class="cls-1" d="M58.7,33.85c-.09,0-.18-.03-.25-.09-.23-.19-5.54-4.76-5.54-7.89s2.6-5.79,5.79-5.79,5.79,2.6,5.79,5.79-5.31,7.69-5.54,7.89c-.07.06-.16.09-.25.09ZM58.7,20.85c-2.77,0-5.02,2.25-5.02,5.02,0,1.12.9,2.73,2.6,4.65.98,1.11,1.97,2.02,2.42,2.43.45-.4,1.44-1.32,2.42-2.43,1.7-1.92,2.6-3.53,2.6-4.66,0-2.77-2.25-5.02-5.02-5.02Z"></path>
  <path class="cls-1" d="M58.7,28.44c-1.42,0-2.57-1.15-2.57-2.57s1.15-2.57,2.57-2.57,2.57,1.15,2.57,2.57-1.15,2.57-2.57,2.57ZM58.7,24.07c-.99,0-1.8.81-1.8,1.8s.81,1.8,1.8,1.8,1.8-.81,1.8-1.8-.81-1.8-1.8-1.8Z"></path>
</svg>
