<?xml version="1.0" encoding="UTF-8"?>
<svg xmlns="http://www.w3.org/2000/svg" id="Layer_1" data-name="Layer 1" viewBox="0 0 60 60">
  <defs>
    <style>
      .cls-1 {
        fill: #009add;
        stroke-width: 0px;
      }
    </style>
  </defs>
  <g id="Order_placement_confimation">
    <g id="Circle">
      <g id="Layer_2" data-name="Layer 2">
        <g id="Layer_1-2" data-name="Layer 1-2">
          <path class="cls-1" d="M60.1,14.79H3.13L10.85,1.31c.04-.05.96-1.31,3.45-1.31h34.86c.25-.02,2.05-.06,3.99,2.31l.04.06,6.9,12.41ZM4.45,14.02h54.34l-6.25-11.25c-1.75-2.13-3.26-2.01-3.32-2.01h-.04s-34.87,0-34.87,0c-1.97,0-2.72.86-2.82.98l-7.04,12.27Z"></path>
          <path class="cls-1" d="M55.36,46.85h-22.19c-.21,0-.38-.17-.38-.38s.17-.38.38-.38h22.19c.21,0,.38.17.38.38s-.17.38-.38.38Z"></path>
          <path class="cls-1" d="M3.79,39.07c-.21,0-.38-.17-.38-.38V14.4c0-.21.17-.38.38-.38s.38.17.38.38v24.28c0,.21-.17.38-.38.38Z"></path>
          <path class="cls-1" d="M12.9,60C5.81,60,.04,54.23.04,47.13s5.77-12.87,12.87-12.87,12.87,5.77,12.87,12.87-5.77,12.87-12.87,12.87ZM12.9,35.03c-6.67,0-12.1,5.43-12.1,12.1s5.43,12.1,12.1,12.1,12.1-5.43,12.1-12.1-5.43-12.1-12.1-12.1Z"></path>
          <path class="cls-1" d="M9.95,52.92l-5.07-6.6c-.13-.17-.1-.41.07-.54s.41-.1.54.07l4.53,5.91,10.31-10.34c.15-.15.39-.15.54,0,.15.15.15.39,0,.54l-10.93,10.96Z"></path>
          <path class="cls-1" d="M22.14,15.25s-.07,0-.1-.01c-.2-.06-.32-.27-.27-.47L25.81.28c.06-.2.27-.32.47-.27.2.06.32.27.27.47l-4.03,14.48c-.05.17-.2.28-.37.28Z"></path>
          <path class="cls-1" d="M41.32,25.59h-19.56v-11.18c0-.21.17-.38.38-.38s.38.17.38.38v10.42h18.02v-9.98L36.86.48c-.05-.2.07-.41.28-.47.2-.05.41.07.47.28l3.71,14.45v10.85Z"></path>
          <path class="cls-1" d="M42.57,35.21c-.09,0-.19-.03-.26-.1l-4.62-4.25-4.59,4.25c-.16.14-.4.13-.54-.02-.14-.16-.13-.4.02-.54l5.11-4.73,5.14,4.73c.16.14.17.39.02.54-.08.08-.18.12-.28.12Z"></path>
          <path class="cls-1" d="M56.13,35.47c-.1,0-.2-.04-.27-.11l-4.83-4.91-4.6,4.65c-.15.15-.39.15-.54,0-.15-.15-.15-.39,0-.54l5.15-5.2,5.38,5.46c.15.15.15.39,0,.54-.07.07-.17.11-.27.11Z"></path>
          <path class="cls-1" d="M37.69,43.33c-.21,0-.38-.17-.38-.38v-12.61c0-.21.17-.38.38-.38s.38.17.38.38v12.61c0,.21-.17.38-.38.38Z"></path>
          <path class="cls-1" d="M51.02,43.53c-.21,0-.38-.17-.38-.38v-13.25c0-.21.17-.38.38-.38s.38.17.38.38v13.25c0,.21-.17.38-.38.38Z"></path>
          <path class="cls-1" d="M56.47,52.11c-.21,0-.36-.02-.43-.03h-31.53c-.21,0-.38-.17-.38-.38s.17-.38.38-.38h31.62s1.02.17,1.82-.45c.62-.49.98-1.33,1.07-2.5V14.4c0-.21.17-.38.38-.38s.38.17.38.38v34.01c-.1,1.41-.56,2.44-1.37,3.07-.69.54-1.47.64-1.96.64Z"></path>
        </g>
      </g>
    </g>
  </g>
</svg>
