<?xml version="1.0" encoding="UTF-8"?>
<svg xmlns="http://www.w3.org/2000/svg" id="Layer_1" data-name="Layer 1" viewBox="0 0 60 60">
  <defs>
    <style>
      .cls-1 {
        fill: #009add;
        stroke-width: 0px;
      }
    </style>
  </defs>
  <path class="cls-1" d="M22.65,53.72s-.07,0-.11-.02c-1.2-.4-2.38-.89-3.5-1.47-1.11-.57-2.18-1.24-3.19-1.98-1.01-.74-1.96-1.56-2.84-2.43-.88-.88-1.7-1.83-2.43-2.84-.74-1.01-1.4-2.08-1.98-3.19-.59-1.13-1.08-2.31-1.47-3.5-.06-.19.04-.39.23-.45.19-.06.39.04.45.23.38,1.15.86,2.29,1.43,3.39.56,1.08,1.2,2.12,1.92,3.1.71.98,1.51,1.9,2.36,2.75.85.85,1.77,1.64,2.75,2.36.98.72,2.02,1.36,3.1,1.92,1.08.56,2.22,1.04,3.39,1.43.19.06.29.26.23.45-.05.15-.19.24-.34.24Z"></path>
  <path class="cls-1" d="M7.48,23.56s-.07,0-.11-.02c-.19-.06-.29-.26-.23-.45.4-1.2.89-2.38,1.47-3.5.57-1.11,1.24-2.18,1.98-3.19.74-1.01,1.56-1.96,2.43-2.83.88-.88,1.83-1.7,2.84-2.43,1.02-.74,2.09-1.41,3.19-1.98,1.12-.58,2.3-1.07,3.5-1.47.19-.06.39.04.45.23.06.19-.04.39-.23.45-1.16.38-2.3.86-3.39,1.43-1.06.55-2.11,1.19-3.1,1.92-.97.71-1.9,1.51-2.75,2.36-.85.85-1.64,1.77-2.36,2.75-.72.98-1.36,2.02-1.92,3.1-.56,1.09-1.04,2.23-1.43,3.39-.05.15-.19.24-.34.24Z"></path>
  <path class="cls-1" d="M52.81,23.56c-.15,0-.29-.09-.34-.24-.39-1.16-.87-2.3-1.43-3.39-.56-1.08-1.2-2.13-1.92-3.1-.72-.97-1.51-1.9-2.36-2.75-.86-.86-1.78-1.65-2.75-2.36-.98-.72-2.02-1.36-3.1-1.92-1.09-.56-2.23-1.04-3.39-1.43-.19-.06-.29-.26-.23-.45.06-.19.26-.29.45-.23,1.19.4,2.37.89,3.49,1.47,1.11.57,2.18,1.24,3.19,1.98,1,.73,1.95,1.55,2.83,2.43.88.88,1.69,1.83,2.43,2.83.73,1,1.4,2.08,1.98,3.19.58,1.12,1.07,2.29,1.47,3.49.06.19-.04.39-.23.45-.04.01-.07.02-.11.02Z"></path>
  <path class="cls-1" d="M37.64,53.72c-.15,0-.29-.09-.34-.24-.06-.19.04-.39.23-.45,1.16-.38,2.3-.86,3.39-1.43,1.07-.55,2.11-1.2,3.1-1.92.97-.71,1.9-1.51,2.75-2.36.85-.85,1.64-1.77,2.36-2.75.72-.99,1.37-2.03,1.92-3.1.56-1.09,1.04-2.23,1.43-3.39.06-.19.26-.29.45-.23.19.06.29.26.23.45-.4,1.2-.89,2.38-1.47,3.5-.57,1.1-1.23,2.17-1.98,3.19-.74,1.01-1.56,1.97-2.43,2.84-.88.88-1.83,1.7-2.84,2.43-1.01.74-2.09,1.41-3.19,1.98-1.12.58-2.3,1.07-3.5,1.47-.04.01-.07.02-.11.02Z"></path>
  <path class="cls-1" d="M5.26,31.48c-1.42,0-2.57-1.33-2.57-2.97s1.15-2.97,2.57-2.97,2.57,1.33,2.57,2.97-1.15,2.97-2.57,2.97ZM5.26,26.01c-1.16,0-2.1,1.12-2.1,2.5s.94,2.5,2.1,2.5,2.1-1.12,2.1-2.5-.94-2.5-2.1-2.5Z"></path>
  <path class="cls-1" d="M5.22,35.28c-2.22,0-3.64-1-3.69-1.04-.1-.07-.13-.2-.07-.31,0,0,.42-.78.69-1.34.17-.37.4-.43.58-.48.03,0,.06-.01.08-.02.13-.04.85-.23.97-.25.22-.05.28-.08.3-.1.02-.03.01-.18.01-.31,0-.09,0-.2,0-.32,0-.13.11-.23.24-.23h0c.13,0,.24.11.23.24,0,.12,0,.22,0,.3,0,.54-.04.73-.68.87-.12.03-.82.21-.93.24-.04.01-.07.02-.11.03-.14.04-.19.05-.27.22-.19.4-.45.9-.59,1.17.43.25,1.61.84,3.24.84s2.82-.6,3.24-.85c-.13-.25-.35-.7-.47-.96l-.05-.1q-.12-.26-.41-.34c-.48-.12-.86-.23-.86-.23-.1-.03-.18-.05-.24-.06-.57-.14-.57-.32-.56-1.18,0-.13.12-.24.24-.23.13,0,.24.11.23.24,0,.33-.01.61.02.67.01,0,.1.03.18.05.07.02.16.04.26.07h0s.38.1.85.22c.48.12.53.19.72.6l.05.1c.17.37.56,1.13.56,1.14.05.1.02.23-.07.3-.06.04-1.47,1.04-3.69,1.04Z"></path>
  <path class="cls-1" d="M30.41,9.52h0c-.13,0-.24-.11-.24-.24l.05-6.73c0-.13.11-.24.24-.24h0c.13,0,.24.11.24.24l-.05,6.73c0,.13-.11.24-.24.24Z"></path>
  <path class="cls-1" d="M30.28,8.34s-.09-.01-.13-.04l-3.03-1.97c-.11-.07-.14-.22-.07-.33.07-.11.22-.14.33-.07l3.03,1.97c.11.07.14.22.07.33-.05.07-.12.11-.2.11Z"></path>
  <path class="cls-1" d="M30.46,7.62c-.08,0-.15-.04-.2-.11-.07-.11-.04-.26.07-.33l3.13-2.08c.11-.07.26-.04.33.07.07.11.04.26-.07.33l-3.13,2.08s-.09.04-.13.04Z"></path>
  <path class="cls-1" d="M30.54,4.41c-.6,0-.93-.25-1.1-.46-.28-.35-.36-.88-.23-1.5.26-1.2,1.14-2.42,1.18-2.48.06-.08.17-.12.27-.09.07.02.13.08.15.15.08.19.75,1.76.86,2.39.08.49.1,1.17-.27,1.61-.2.24-.5.37-.86.37ZM30.54.63c-.27.44-.7,1.2-.86,1.94-.1.47-.06.86.13,1.1.15.19.4.28.73.28.22,0,.38-.07.5-.2.19-.23.25-.67.16-1.22-.07-.42-.44-1.35-.66-1.89Z"></path>
  <path class="cls-1" d="M32.83,6.98s-.03,0-.04,0c-.33-.01-.62-.16-.86-.45-.33-.39-.44-.83-.3-1.25.17-.52.7-.92,1.45-1.09l2.31-.38c.09-.01.18.02.23.1s.06.18,0,.26c-.04.07-.97,1.64-1.45,2.11-.46.47-.92.71-1.34.71ZM34.94,4.36l-1.78.29c-.57.13-.97.41-1.09.77-.08.26,0,.54.21.8.16.19.33.28.52.29.3.02.65-.19,1.03-.57.29-.29.79-1.08,1.11-1.58Z"></path>
  <path class="cls-1" d="M28,7.78c-.51,0-1.01-.3-1.31-.62,0,0-.01-.01-.02-.02l-1.51-2.04s-.07-.11-.07-.18c0-.14.13-.24.27-.22.11.01,1.91.21,2.52.44.64.24,1.05.56,1.22.97.12.3.11.63-.05.98-.23.49-.59.64-.86.68-.06,0-.13.01-.19.01ZM27.05,6.84c.29.31.74.5,1.07.45.22-.03.39-.17.5-.41.1-.22.12-.42.04-.59-.11-.27-.44-.52-.94-.7-.37-.14-1.27-.27-1.86-.35l1.19,1.61Z"></path>
  <path class="cls-1" d="M30.35,58.35c-1.31,0-2.38-1.07-2.38-2.38s1.07-2.38,2.38-2.38c.67,0,1.31.29,1.76.78.09.1.08.25-.02.34s-.25.08-.34-.02c-.36-.4-.88-.63-1.41-.63-1.05,0-1.9.85-1.9,1.9s.85,1.9,1.9,1.9,1.9-.85,1.9-1.9c0-.13.11-.24.24-.24s.24.11.24.24c0,1.31-1.07,2.38-2.38,2.38Z"></path>
  <path class="cls-1" d="M29.86,59.98c-.09,0-.17-.05-.21-.13l-.3-.6-.33-.14-.57.28c-.08.04-.18.03-.25-.03l-.78-.63c-.07-.06-.1-.16-.08-.25l.17-.64-.17-.31-.63-.17c-.09-.02-.15-.09-.17-.18l-.21-.98c-.02-.09.02-.19.09-.24l.53-.38.07-.36-.37-.52c-.05-.07-.06-.17-.01-.25l.51-.9c.05-.08.14-.13.23-.12l.63.06.28-.24.04-.63c0-.09.07-.17.15-.21l.96-.36c.09-.03.18-.01.25.05l.48.46h.36s.45-.46.45-.46c.06-.06.16-.09.25-.06l.94.34c.09.03.15.11.16.2l.06.6.33.28.57-.07c.09-.01.18.03.23.11l.54.88c.05.08.05.18,0,.26l-.36.52.08.4.5.34c.08.05.12.14.1.24l-.17.99c-.02.09-.08.17-.17.19l-.61.16-.19.35.15.59c.02.09,0,.18-.07.24l-.74.66c-.07.06-.17.08-.25.04l-.61-.26-.35.12-.28.57c-.04.08-.12.13-.21.13l-.98.03s0,0,0,0ZM29.01,58.61s.06,0,.09.02l.51.21c.05.02.1.06.12.11l.27.55.69-.02.26-.53c.03-.06.08-.1.13-.12l.53-.19c.06-.02.12-.02.17,0l.56.24.52-.46-.14-.54c-.02-.06,0-.12.02-.17l.29-.52c.03-.06.08-.1.15-.11l.56-.15.12-.69-.46-.31c-.05-.04-.09-.09-.1-.15l-.11-.6c-.01-.06,0-.13.04-.18l.33-.47-.38-.62-.52.06c-.06,0-.13-.01-.18-.05l-.48-.41s-.08-.1-.08-.16l-.05-.55-.66-.23-.41.41s-.1.07-.16.07l-.55.02c-.06,0-.13-.02-.17-.07l-.44-.43-.67.25-.04.58c0,.06-.03.12-.08.17l-.43.37s-.11.06-.17.06l-.57-.05-.36.63.34.48c.04.05.05.12.04.18l-.1.55c-.01.06-.05.12-.1.15l-.48.34.15.68.58.16c.06.02.12.06.15.11l.27.48c.03.05.04.12.02.18l-.15.58.55.44.53-.26s.07-.02.1-.02Z"></path>
  <path class="cls-1" d="M53.18,35.34c-.11,0-.2-.05-.25-.15-.09-.15-.01-.31.02-.37l1.82-3.63h-1.43c-.16,0-.3-.07-.38-.19-.08-.13-.08-.29,0-.43l1.91-3.82c.11-.21.36-.37.6-.37h1.64c.16,0,.3.07.38.2.08.13.08.29,0,.43l-1.28,2.57h1.96c.21,0,.31.1.35.17.01.02.02.03.03.05.03.07.07.24-.11.42l-4.97,4.97c-.07.07-.16.14-.28.14ZM53.4,30.73h1.57c.13,0,.25.06.3.16.06.09.06.22,0,.34l-1.49,2.97,4.14-4.14h-1.95c-.13,0-.25-.06-.3-.16-.06-.09-.06-.22,0-.34l1.35-2.69h-1.57c-.06,0-.15.05-.17.11l-1.88,3.75ZM54.86,31.01h0s0,0,0,0Z"></path>
  <g id="Brand">
    <g id="Circle">
      <g id="Layer_2" data-name="Layer 2">
        <g id="Layer_1-2" data-name="Layer 1-2">
          <path class="cls-1" d="M40.24,47.84c-.12,0-.24-.06-.3-.17-.1-.17-.05-.39.12-.49,4.38-2.69,7.45-6.92,8.65-11.92,1.19-5,.37-10.16-2.33-14.54-3.48-5.66-9.76-9.17-16.39-9.17-.2,0-.36-.16-.36-.36s.16-.36.36-.36c6.87,0,13.38,3.65,16.99,9.51,2.79,4.54,3.65,9.89,2.41,15.08-1.24,5.18-4.42,9.57-8.97,12.36-.06.04-.12.05-.19.05Z"></path>
          <path class="cls-1" d="M30.01,50.73h0c-10.99-.02-19.94-8.97-19.95-19.95,0-.2.16-.36.36-.36h0c.2,0,.36.16.36.36.02,10.59,8.65,19.22,19.24,19.24.2,0,.36.16.36.36s-.16.36-.36.36Z"></path>
          <path class="cls-1" d="M29.3,50.64c-.05,0-.1-.01-.15-.03-7.14-3.37-11.76-11.2-11.76-19.95s4.81-16.24,12.27-19.78c.18-.08.39,0,.48.17s0,.39-.17.48c-7.2,3.43-11.86,10.94-11.86,19.14s4.46,16.05,11.35,19.31c.18.08.25.3.17.47-.06.13-.19.2-.32.2Z"></path>
          <path class="cls-1" d="M29.99,50.73c-.13,0-.26-.07-.32-.2-.09-.18-.02-.39.16-.48,7.32-3.67,12.05-11.11,12.05-18.94,0-4.43-1.14-8.6-3.28-12.08-2.13-3.44-5.15-6.04-8.74-7.51-.18-.07-.27-.28-.19-.46.07-.18.28-.27.46-.19,3.73,1.53,6.87,4.22,9.08,7.79,2.22,3.59,3.39,7.89,3.39,12.45,0,8.1-4.88,15.79-12.44,19.58-.05.03-.11.04-.16.04Z"></path>
          <path class="cls-1" d="M30.29,22.06c-6.37,0-12.05-.77-16.43-2.21-.19-.06-.29-.26-.23-.45.06-.19.26-.29.45-.23,4.31,1.43,9.91,2.18,16.21,2.18,5.79,0,11.38-.72,15.73-2.03.19-.06.39.05.44.24.06.19-.05.39-.24.44-4.42,1.33-10.07,2.06-15.93,2.06Z"></path>
          <path class="cls-1" d="M45.68,42.84s-.07,0-.1-.02c-4.22-1.28-9.77-1.98-15.61-1.98s-11.37.7-15.59,1.98c-.19.06-.39-.05-.44-.24s.05-.39.24-.44c4.29-1.3,9.9-2.01,15.8-2.01s11.52.71,15.81,2.01c.19.06.3.26.24.44-.05.15-.19.25-.34.25Z"></path>
          <path class="cls-1" d="M49.45,31.13H10.85c-.2,0-.36-.16-.36-.36s.16-.36.36-.36h38.6c.2,0,.36.16.36.36s-.16.36-.36.36Z"></path>
          <path class="cls-1" d="M29.47,50.51c-.12,0-.23-.06-.3-.17-2.2-3.46-3.37-10.08-3.37-19.15s1.53-16.59,3.9-20c.11-.16.33-.2.5-.09.16.11.2.33.09.5-2.29,3.3-3.77,10.99-3.77,19.6s1.16,15.47,3.26,18.76c.11.17.06.39-.11.49-.06.04-.13.06-.19.06Z"></path>
          <path class="cls-1" d="M29.99,50.49c-.08,0-.15-.02-.22-.07-.16-.12-.18-.34-.06-.5,2.58-3.32,4.12-10.43,4.12-19.04s-1.75-16.12-4.46-19.44c-.12-.15-.1-.38.05-.5.15-.12.38-.1.5.05,2.81,3.44,4.62,11.24,4.62,19.89s-1.55,15.99-4.27,19.48c-.07.09-.18.14-.28.14Z"></path>
          <path class="cls-1" d="M10.41,31.15h0c-.2,0-.36-.16-.35-.36.05-8.28,5.29-15.79,13.04-18.69.18-.07.39.02.46.21.07.18-.02.39-.21.46-7.47,2.8-12.52,10.05-12.57,18.03,0,.2-.16.35-.36.35Z"></path>
          <path class="cls-1" d="M34.89,50.1c-.16,0-.3-.11-.34-.27-.05-.19.07-.39.26-.43,8.36-2.16,14.43-10,14.43-18.63,0-.2.16-.36.36-.36s.36.16.36.36c0,8.95-6.29,17.07-14.97,19.32-.03,0-.06.01-.09.01Z"></path>
        </g>
      </g>
    </g>
  </g>
</svg>
