<?xml version="1.0" encoding="UTF-8"?>
<svg xmlns="http://www.w3.org/2000/svg" id="Layer_1" data-name="Layer 1" viewBox="0 0 81.4 60">
  <defs>
    <style>
      .cls-1 {
        fill: #009add;
        stroke-width: 0px;
      }
    </style>
  </defs>
  <g id="Layer_2" data-name="Layer 2">
    <g id="Layer_1-2" data-name="Layer 1-2">
      <g>
        <path class="cls-1" d="M60.95,31.11h-1.27c-.26,0-.48-.21-.48-.48s.21-.48.48-.48h1.27c.26,0,.48.21.48.48s-.21.48-.48.48Z"></path>
        <path class="cls-1" d="M63.72,31.11h-1.3c-.26,0-.48-.21-.48-.48s.21-.48.48-.48h1.3c.26,0,.48.21.48.48s-.21.48-.48.48Z"></path>
        <path class="cls-1" d="M66.45,31.11h-1.27c-.26,0-.48-.21-.48-.48s.21-.48.48-.48h1.27c.26,0,.48.21.48.48s-.21.48-.48.48Z"></path>
        <path class="cls-1" d="M73.25,31.11h-5.31c-.26,0-.48-.21-.48-.48s.21-.48.48-.48h5.31c.26,0,.48.21.48.48s-.21.48-.48.48Z"></path>
        <path class="cls-1" d="M58.22,31.11h-5.53c-.26,0-.48-.21-.48-.48s.21-.48.48-.48h5.53c.26,0,.48.21.48.48s-.21.48-.48.48Z"></path>
        <path class="cls-1" d="M76.75,34.54c-2.16,0-3.91-1.75-3.91-3.91s1.75-3.91,3.91-3.91,3.91,1.75,3.91,3.91-1.75,3.91-3.91,3.91ZM76.75,27.68c-1.63,0-2.96,1.33-2.96,2.96s1.33,2.96,2.96,2.96,2.96-1.33,2.96-2.96-1.33-2.96-2.96-2.96Z"></path>
        <path class="cls-1" d="M77.48,31.11h-1.46c-.26,0-.48-.21-.48-.48s.21-.48.48-.48h1.46c.26,0,.48.21.48.48s-.21.48-.48.48Z"></path>
      </g>
      <path class="cls-1" d="M29.62,60C13.29,60,0,46.71,0,30.38S13.29.76,29.62.76c14.8,0,24.68,9.63,27.91,19.17.08.25-.05.52-.3.6-.25.08-.52-.05-.6-.3C53.5,11.02,43.94,1.72,29.62,1.72,13.81,1.72.95,14.58.95,30.38s12.86,28.67,28.67,28.67c14.35,0,23.9-9.3,27.01-18.52.08-.25.35-.38.6-.3.25.08.38.35.3.6-3.21,9.54-13.08,19.17-27.91,19.17Z"></path>
      <g>
        <path class="cls-1" d="M67.4,55.49c-2.31,0-4.19-1.88-4.19-4.19s1.88-4.19,4.19-4.19,4.19,1.88,4.19,4.19-1.88,4.19-4.19,4.19ZM67.4,48.05c-1.79,0-3.24,1.45-3.24,3.24s1.45,3.24,3.24,3.24,3.24-1.45,3.24-3.24-1.45-3.24-3.24-3.24Z"></path>
        <path class="cls-1" d="M68.23,51.77h-1.56c-.26,0-.48-.21-.48-.48s.21-.48.48-.48h1.56c.26,0,.48.21.48.48s-.21.48-.48.48Z"></path>
        <path class="cls-1" d="M57.08,41.44c-.12,0-.24-.05-.34-.14l-6.67-6.67c-.19-.19-.19-.49,0-.67s.49-.19.67,0l6.67,6.67c.19.19.19.49,0,.67-.09.09-.22.14-.34.14Z"></path>
        <path class="cls-1" d="M64.8,49.16c-.12,0-.24-.05-.34-.14l-5.5-5.5c-.19-.19-.19-.49,0-.67s.49-.19.67,0l5.5,5.5c.19.19.19.49,0,.67-.09.09-.22.14-.34.14Z"></path>
      </g>
      <g>
        <path class="cls-1" d="M72.2,10.42c-2.87,0-5.21-2.34-5.21-5.21s2.34-5.21,5.21-5.21,5.21,2.34,5.21,5.21-2.34,5.21-5.21,5.21ZM72.2.95c-2.35,0-4.26,1.91-4.26,4.26s1.91,4.26,4.26,4.26,4.26-1.91,4.26-4.26-1.91-4.26-4.26-4.26Z"></path>
        <path class="cls-1" d="M73.25,5.66h-2.03c-.26,0-.48-.21-.48-.48s.21-.48.48-.48h2.03c.26,0,.48.21.48.48s-.21.48-.48.48Z"></path>
        <path class="cls-1" d="M50.4,27.46c-.12,0-.24-.05-.34-.14-.19-.19-.19-.49,0-.67l8.55-8.52c.19-.19.49-.19.67,0,.19.19.19.49,0,.67l-8.55,8.52c-.09.09-.21.14-.34.14Z"></path>
        <path class="cls-1" d="M61.78,16.08c-.12,0-.24-.05-.34-.14-.19-.19-.19-.49,0-.67l7.06-7.05c.19-.19.49-.19.67,0,.19.19.19.49,0,.67l-7.06,7.05c-.09.09-.22.14-.34.14Z"></path>
      </g>
    </g>
  </g>
  <g id="Automation_and_robotics">
    <g id="Layer_1-2-2" data-name="Layer 1-2">
      <path class="cls-1" d="M33.15,49.23H13.6c-.26,0-.48-.21-.48-.48s.21-.48.48-.48h19.54c.26,0,.48.21.48.48s-.21.48-.48.48Z"></path>
      <path class="cls-1" d="M32.99,42.81H13.73c-.26,0-.48-.21-.48-.48s.21-.48.48-.48h19.26c.26,0,.48.21.48.48s-.21.48-.48.48Z"></path>
      <path class="cls-1" d="M32.99,49.16c-.26,0-.48-.21-.48-.48v-6.42c0-.26.21-.48.48-.48s.48.21.48.48v6.42c0,.26-.21.48-.48.48Z"></path>
      <path class="cls-1" d="M13.79,49.19c-.26,0-.48-.21-.48-.48v-6.45c0-.26.21-.48.48-.48s.48.21.48.48v6.45c0,.26-.21.48-.48.48Z"></path>
      <path class="cls-1" d="M37.63,15.86h-17.03c-.26,0-.48-.21-.48-.48s.21-.48.48-.48h17.03c.26,0,.48.21.48.48s-.21.48-.48.48Z"></path>
      <path class="cls-1" d="M37.63,21.04h-16.75c-.26,0-.48-.21-.48-.48s.21-.48.48-.48h16.75c.26,0,.48.21.48.48s-.21.48-.48.48Z"></path>
      <path class="cls-1" d="M37.63,21.04c-.26,0-.48-.21-.48-.48v-5.18c0-.26.21-.48.48-.48s.48.21.48.48v5.18c0,.26-.21.48-.48.48Z"></path>
      <path class="cls-1" d="M41.63,19.67h-3.81c-.26,0-.48-.21-.48-.48s.21-.48.48-.48h3.81c.26,0,.48.21.48.48s-.21.48-.48.48Z"></path>
      <path class="cls-1" d="M41.63,17.07h-4c-.26,0-.48-.21-.48-.48s.21-.48.48-.48h4c.26,0,.48.21.48.48s-.21.48-.48.48Z"></path>
      <path class="cls-1" d="M46.46,24.15h-3.81c-.26,0-.48-.21-.48-.48s.21-.48.48-.48h3.81c.26,0,.48.21.48.48s-.21.48-.48.48Z"></path>
      <path class="cls-1" d="M46.46,25.55c-.26,0-.48-.21-.48-.48v-4.51c0-.26.21-.48.48-.48s.48.21.48.48v4.51c0,.26-.21.48-.48.48Z"></path>
      <path class="cls-1" d="M42.65,25.55c-.26,0-.48-.21-.48-.48v-4.51c0-.26.21-.48.48-.48s.48.21.48.48v4.51c0,.26-.21.48-.48.48Z"></path>
      <path class="cls-1" d="M40.68,27.3c-.13,0-.25-.05-.35-.15-.18-.19-.17-.49.02-.67l1.91-1.81c.19-.18.49-.17.67.02.18.19.17.49-.02.67l-1.91,1.81c-.09.09-.21.13-.33.13Z"></path>
      <path class="cls-1" d="M43.06,29.68c-.12,0-.24-.05-.34-.14l-2.38-2.38c-.19-.19-.19-.49,0-.67.19-.19.49-.19.67,0l2.38,2.38c.19.19.19.49,0,.67-.09.09-.22.14-.34.14Z"></path>
      <path class="cls-1" d="M46.27,29.49c-.12,0-.25-.05-.34-.14-.18-.19-.18-.49,0-.67l2.1-2.07c.19-.18.49-.18.67,0,.18.19.18.49,0,.67l-2.1,2.07c-.09.09-.21.14-.33.14Z"></path>
      <path class="cls-1" d="M48.37,27.43c-.12,0-.25-.05-.34-.15l-1.91-1.97c-.18-.19-.18-.49.01-.67.19-.18.49-.18.67.01l1.91,1.97c.18.19.18.49-.01.67-.09.09-.21.13-.33.13Z"></path>
      <path class="cls-1" d="M18.94,35.12c-.21,0-.41-.15-.46-.36l-3.24-13.32c-.06-.26.09-.51.35-.58.26-.06.51.09.58.35l3.24,13.32c.06.26-.09.51-.35.58-.04,0-.08.01-.11.01Z"></path>
      <path class="cls-1" d="M26.76,32.86c-.17,0-.34-.1-.43-.26l-6.01-12.01c-.12-.24-.02-.52.21-.64.24-.12.52-.02.64.21l6.01,12.01c.12.24.02.52-.21.64-.07.03-.14.05-.21.05Z"></path>
      <path class="cls-1" d="M15.7,42.71c-.07,0-.15-.02-.22-.05-.23-.12-.33-.41-.2-.64l3.18-6.13c.12-.23.41-.32.64-.2.23.12.33.41.2.64l-3.18,6.13c-.08.16-.25.26-.42.26Z"></path>
      <path class="cls-1" d="M27.81,42.81c-.26,0-.48-.21-.48-.48v-7.06c0-.26.21-.48.48-.48s.48.21.48.48v7.06c0,.26-.21.48-.48.48Z"></path>
      <path class="cls-1" d="M17.61,22.25c-2.38,0-4.32-1.94-4.32-4.32s1.94-4.32,4.32-4.32,4.32,1.94,4.32,4.32-1.94,4.32-4.32,4.32ZM17.61,14.56c-1.86,0-3.37,1.51-3.37,3.37s1.51,3.37,3.37,3.37,3.37-1.51,3.37-3.37-1.51-3.37-3.37-3.37Z"></path>
      <path class="cls-1" d="M17.61,19.67c-.96,0-1.75-.78-1.75-1.75s.78-1.75,1.75-1.75,1.75.78,1.75,1.75-.78,1.75-1.75,1.75ZM17.61,17.13c-.44,0-.79.36-.79.79s.36.79.79.79.79-.36.79-.79-.36-.79-.79-.79Z"></path>
      <path class="cls-1" d="M23.42,37.72c-1.35,0-2.45-1.1-2.45-2.45s1.1-2.45,2.45-2.45,2.45,1.1,2.45,2.45-1.1,2.45-2.45,2.45ZM23.42,33.78c-.82,0-1.49.67-1.49,1.49s.67,1.49,1.49,1.49,1.49-.67,1.49-1.49-.67-1.49-1.49-1.49Z"></path>
      <path class="cls-1" d="M44.52,19.7c-.96,0-1.75-.78-1.75-1.75s.78-1.75,1.75-1.75,1.75.78,1.75,1.75-.78,1.75-1.75,1.75ZM44.52,17.16c-.44,0-.79.36-.79.79s.36.79.79.79.79-.36.79-.79-.36-.79-.79-.79Z"></path>
      <path class="cls-1" d="M44.52,21.61c-2.03,0-3.69-1.65-3.69-3.69s1.65-3.69,3.69-3.69,3.69,1.65,3.69,3.69-1.65,3.69-3.69,3.69ZM44.52,15.19c-1.51,0-2.73,1.23-2.73,2.73s1.23,2.73,2.73,2.73,2.73-1.23,2.73-2.73-1.23-2.73-2.73-2.73Z"></path>
      <path class="cls-1" d="M23.33,40.17c-2.72,0-4.93-2.21-4.93-4.93s2.21-4.93,4.93-4.93,4.93,2.21,4.93,4.93-2.21,4.93-4.93,4.93ZM23.33,31.27c-2.19,0-3.97,1.78-3.97,3.97s1.78,3.97,3.97,3.97,3.97-1.78,3.97-3.97-1.78-3.97-3.97-3.97Z"></path>
      <path class="cls-1" d="M37.63,18.46h-16.05c-.26,0-.48-.21-.48-.48s.21-.48.48-.48h16.05c.26,0,.48.21.48.48s-.21.48-.48.48Z"></path>
    </g>
  </g>
</svg>
