<?xml version="1.0" encoding="UTF-8"?>
<svg xmlns="http://www.w3.org/2000/svg" id="Layer_1" data-name="Layer 1" viewBox="0 0 60 60">
  <defs>
    <style>
      .cls-1 {
        fill: #009add;
        stroke-width: 0px;
      }
    </style>
  </defs>
  <g id="Layer_2" data-name="Layer 2">
    <g id="Layer_1-2" data-name="Layer 1-2">
      <path class="cls-1" d="M28.95,13.29h-15.59c-.21,0-.38-.17-.38-.38s.17-.38.38-.38h15.59c.21,0,.38.17.38.38s-.17.38-.38.38Z"></path>
      <path class="cls-1" d="M26.15,49.77H8.14c-.08,0-6.86-.39-6.96-9.15V15.38c0-.15-.1-4.03,2.19-6.4,1.13-1.16,2.63-1.75,4.47-1.75h5.53c.21,0,.38.17.38.38v32.07c0,.21-.16.37-.37.38l-4.92.13c-.25,0-2.36.08-2.36,2.35,0,.21-.17.38-.38.38s-.38-.17-.38-.38c0-2.45,2.03-3.1,3.1-3.1l4.54-.12V7.99h-5.15c-1.63,0-2.95.51-3.93,1.52-2.07,2.13-1.98,5.82-1.98,5.86v25.24c.1,8.02,5.97,8.39,6.22,8.4h18c.21,0,.38.17.38.38s-.17.38-.38.38Z"></path>
      <path class="cls-1" d="M40.62,22.02c-.42,0-.85-.03-1.27-.1-2.07-.34-3.88-1.46-5.11-3.16-1.23-1.7-1.72-3.78-1.38-5.84h0c.34-2.07,1.46-3.88,3.16-5.11s3.78-1.72,5.84-1.38c2.07.34,3.88,1.46,5.11,3.16,1.23,1.7,1.72,3.78,1.38,5.84-.34,2.07-1.46,3.88-3.16,5.11-1.35.97-2.94,1.48-4.57,1.48ZM40.59,7.08c-1.48,0-2.91.46-4.13,1.34-1.54,1.11-2.55,2.75-2.85,4.62h0c-.3,1.87.14,3.74,1.25,5.28,1.11,1.54,2.75,2.55,4.62,2.85,1.87.3,3.74-.14,5.28-1.25,1.54-1.11,2.55-2.75,2.85-4.62.3-1.87-.14-3.74-1.25-5.28-1.11-1.54-2.75-2.55-4.62-2.85-.38-.06-.77-.09-1.15-.09ZM33.24,12.98h0,0Z"></path>
      <path class="cls-1" d="M40.58,7.06c-.21,0-.38-.17-.38-.38V.42c0-.21.17-.38.38-.38s.38.17.38.38v6.26c0,.21-.17.38-.38.38Z"></path>
      <path class="cls-1" d="M58.45,49.77h-3.41c-.21,0-.38-.17-.38-.38s.17-.38.38-.38h3.03V13.29h-5.83c-.21,0-.38-.17-.38-.38s.17-.38.38-.38h6.21c.21,0,.38.17.38.38v36.48c0,.21-.17.38-.38.38Z"></path>
      <path class="cls-1" d="M29.94,59.61c-.18,0-.33-.12-.37-.3l-.98-4.77c-.01-.06,0-.12,0-.18l9.81-33.05c.06-.2.27-.31.47-.26.2.06.31.27.26.47l-9.79,32.96.96,4.68c.04.2-.09.4-.29.45-.03,0-.05,0-.08,0Z"></path>
      <path class="cls-1" d="M51.53,59.61s-.04,0-.06,0c-.21-.03-.35-.23-.32-.43l.69-4.46-9.79-33.2c-.06-.2.06-.41.26-.47.2-.06.41.06.47.26l9.81,33.28c.02.05.02.11.01.17l-.71,4.54c-.03.19-.19.32-.37.32Z"></path>
      <path class="cls-1" d="M53.78,38.42h-26.36c-.21,0-.38-.17-.38-.38s.17-.38.38-.38h26.36c.21,0,.38.17.38.38s-.17.38-.38.38Z"></path>
      <path class="cls-1" d="M40.58,42.61c-.21,0-.38-.17-.38-.38v-8.5c0-.21.17-.38.38-.38s.38.17.38.38v8.5c0,.21-.17.38-.38.38Z"></path>
    </g>
  </g>
</svg>
