<?xml version="1.0" encoding="UTF-8"?>
<svg xmlns="http://www.w3.org/2000/svg" id="Layer_1" viewBox="0 0 84 84">
  <defs>
    <style>.cls-1{fill:none;stroke:#009add;stroke-linecap:round;stroke-linejoin:round;}</style>
  </defs>
  <circle class="cls-1" cx="41.24" cy="42.46" r="6.5"></circle>
  <polyline class="cls-1" points="41.13 59.77 43.36 63.8 48.65 62.53 49.57 57.06 52.26 55.16 57.72 56.1 60.67 51.41 57.46 46.9 58.01 43.65 62.54 40.45 61.32 35.05 55.85 34.13 53.94 31.44 54.89 25.97 50.2 23.02"></polyline>
  <path class="cls-1" d="m9.02,51.96c-2.72-10.02-.77-21.16,6.22-29.88,11-13.7,30.53-16.51,44.87-6.93l2.85-6.15,7.8,17.18-8.22,1.41"></path>
  <polyline class="cls-1" points="41.27 25.53 39.23 21.15 33.83 22.38 32.91 27.85 30.22 29.76 24.76 28.81 21.81 33.5 25.02 38.02 24.47 41.27 19.94 44.47 21.17 49.87 26.63 50.79 28.54 53.48 27.6 58.94 32.28 61.89"></polyline>
  <path class="cls-1" d="m73.62,33.19c2.66,9.98.7,21.05-6.26,29.73-11,13.7-30.53,16.51-44.87,6.93l-2.85,6.15-7.8-17.18,8.36-1.54"></path>
</svg>
