<?xml version="1.0" encoding="UTF-8"?>
<svg xmlns="http://www.w3.org/2000/svg" id="Layer_1" viewBox="0 0 84 84">
  <defs>
    <style>.cls-1{fill:none;stroke:#009add;stroke-linecap:round;stroke-miterlimit:10;}</style>
  </defs>
  <g id="Quality_assurance">
    <g id="Circle">
      <g id="Layer_2">
        <g id="Layer_1-2">
          <path class="cls-1" d="m11.61,5s11.94,10.99,31.24.76c0,0,13.95,9.27,31.01,0v31.52s.38,16.53-10.35,26.08l-20.67,15.63-19.9-15.16s-10.25-8.53-11.34-23.12V5Z"></path>
          <path class="cls-1" d="m16,12.66c2.81.26,5.62,7.47,26.91.96,0,0,19.51,6.51,26.91-.96"></path>
          <line class="cls-1" x1="42.9" y1="29.22" x2="42.9" y2="13.58"></line>
          <polygon class="cls-1" points="23.79 43.76 28.32 39.35 36.01 47.36 60.59 22.75 64.62 26.77 35.66 56.33 23.79 43.76"></polygon>
          <path class="cls-1" d="m23.72,56.97s8.04,10.47,19.06,14.4c0,0,12.04-4.41,19.41-14.56"></path>
          <line class="cls-1" x1="42.9" y1="58.91" x2="42.9" y2="71.36"></line>
        </g>
      </g>
    </g>
  </g>
</svg>
