<?xml version="1.0" encoding="UTF-8"?>
<svg xmlns="http://www.w3.org/2000/svg" id="Layer_1" viewBox="0 0 84 84">
  <defs>
    <style>.cls-1,.cls-2{fill:none;stroke:#009add;stroke-linecap:round;stroke-linejoin:round;}.cls-2{stroke-width:.75px;}</style>
  </defs>
  <g id="Layer_2">
    <g id="Layer_1-2">
      <g>
        <line class="cls-1" x1="60.29" y1="40.35" x2="61.53" y2="40.35"></line>
        <line class="cls-1" x1="62.94" y1="40.35" x2="64.17" y2="40.35"></line>
        <line class="cls-1" x1="65.58" y1="40.35" x2="66.82" y2="40.35"></line>
        <line class="cls-1" x1="68.23" y1="40.35" x2="73.34" y2="40.35"></line>
        <line class="cls-1" x1="53.6" y1="40.35" x2="58.88" y2="40.35"></line>
        <circle class="cls-1" cx="76.7" cy="40.36" r="3.3"></circle>
        <line class="cls-1" x1="75.98" y1="40.35" x2="77.39" y2="40.35"></line>
      </g>
      <path class="cls-1" d="m57.79,50.01c-3.31,9.89-13.2,18.11-26.36,18.11-15.46,0-28-12.54-28-28S15.97,12.12,31.43,12.12c13.16,0,23.05,8.26,26.36,18.11"></path>
      <g>
        <circle class="cls-1" cx="67.72" cy="60.2" r="3.56"></circle>
        <line class="cls-1" x1="67" y1="60.19" x2="68.52" y2="60.19"></line>
        <line class="cls-1" x1="57.79" y1="50.27" x2="51.4" y2="43.88"></line>
        <line class="cls-1" x1="65.21" y1="57.69" x2="59.92" y2="52.4"></line>
      </g>
      <g>
        <circle class="cls-1" cx="72.32" cy="15.93" r="4.56"></circle>
        <line class="cls-1" x1="71.39" y1="15.92" x2="73.34" y2="15.92"></line>
        <line class="cls-1" x1="51.4" y1="36.85" x2="59.59" y2="28.65"></line>
        <line class="cls-1" x1="62.32" y1="25.92" x2="69.1" y2="19.14"></line>
      </g>
    </g>
  </g>
  <g id="Automation_and_robotics">
    <g id="Layer_1-2-2">
      <line class="cls-2" x1="16.05" y1="57.74" x2="34.81" y2="57.74"></line>
      <polygon class="cls-2" points="34.66 51.6 16.16 51.6 16.16 51.6 34.66 51.6"></polygon>
      <rect class="cls-2" x="34.65" y="51.54" height="6.16"></rect>
      <rect class="cls-2" x="16.22" y="51.54" height="6.19"></rect>
      <polygon class="cls-2" points="39.13 25.71 22.76 25.71 22.76 25.71 39.13 25.71"></polygon>
      <polygon class="cls-2" points="39.13 30.69 23.04 30.69 23.04 30.69 39.13 30.69"></polygon>
      <line class="cls-2" x1="39.13" y1="25.71" x2="39.13" y2="30.69"></line>
      <line class="cls-2" x1="39.29" y1="29.36" x2="42.95" y2="29.36"></line>
      <line class="cls-2" x1="39.13" y1="26.87" x2="42.95" y2="26.87"></line>
      <line class="cls-2" x1="43.94" y1="33.68" x2="47.59" y2="33.68"></line>
      <line class="cls-2" x1="47.59" y1="30.69" x2="47.59" y2="35"></line>
      <line class="cls-2" x1="43.94" y1="30.69" x2="43.94" y2="35"></line>
      <line class="cls-2" x1="42.05" y1="36.7" x2="43.89" y2="34.96"></line>
      <line class="cls-2" x1="44.32" y1="38.99" x2="42.05" y2="36.7"></line>
      <line class="cls-2" x1="47.41" y1="38.79" x2="49.44" y2="36.82"></line>
      <line class="cls-2" x1="47.59" y1="34.92" x2="49.44" y2="36.82"></line>
      <line class="cls-2" x1="18.05" y1="31.4" x2="21.15" y2="44.19"></line>
      <line class="cls-2" x1="22.91" y1="30.51" x2="28.69" y2="42.04"></line>
      <line class="cls-2" x1="18.05" y1="51.5" x2="21.1" y2="45.6"></line>
      <line class="cls-2" x1="29.67" y1="44.8" x2="29.67" y2="51.6"></line>
      <circle class="cls-2" cx="19.87" cy="28.13" r="3.7"></circle>
      <circle class="cls-2" cx="19.89" cy="28.13" r="1.23"></circle>
      <circle class="cls-2" cx="25.47" cy="44.8" r="1.89"></circle>
      <circle class="cls-2" cx="45.73" cy="28.17" r="1.23"></circle>
      <circle class="cls-2" cx="45.73" cy="28.13" r="3.07"></circle>
      <circle class="cls-2" cx="25.38" cy="44.77" r="4.27"></circle>
      <line class="cls-2" x1="39.13" y1="28.2" x2="23.69" y2="28.2"></line>
    </g>
  </g>
</svg>
